<svg version="1.1" id="Layer_1" xmlns="http://www.w3.org/2000/svg" xmlns:xlink="http://www.w3.org/1999/xlink" x="0px" y="0px"
	 width="100%" viewBox="0 0 256 256" enable-background="new 0 0 256 256" xml:space="preserve">
<path fill="#000000" opacity="1.000000" stroke="none" 
	d="
M257.000000,57.600006 
	C241.477814,61.574726 226.078888,61.649422 210.902527,56.267918 
	C208.841812,55.537193 206.934860,56.210381 205.031479,56.583843 
	C194.779022,58.595497 184.673508,58.412609 174.776321,54.805233 
	C173.025833,54.167202 171.441162,53.705948 169.493576,54.196167 
	C159.752823,56.647945 150.391602,55.688076 141.524429,50.744446 
	C140.566635,50.210453 139.549652,49.440960 138.351578,49.845825 
	C137.405762,50.375000 137.357529,51.242104 137.387054,52.060314 
	C138.047882,70.377228 135.954514,88.637985 136.274582,106.953590 
	C136.348267,111.170166 137.491089,112.106636 141.635666,110.923210 
	C151.030441,108.240662 160.583221,106.116127 170.036636,103.631096 
	C172.429993,103.001953 174.799545,102.076134 176.987915,100.922272 
	C180.175491,99.241570 183.299896,96.818710 182.204163,92.836929 
	C181.081940,88.758926 178.633133,85.290741 173.450394,85.360779 
	C168.641220,85.425774 163.870285,85.198074 159.061401,84.468903 
	C153.243118,83.586678 148.346054,81.073372 143.811493,77.670532 
	C140.796463,75.407990 141.147461,73.272728 144.606232,71.823196 
	C150.095169,69.522842 156.132095,68.910522 161.501663,66.026016 
	C163.690033,64.850426 167.158112,64.825539 169.127548,66.757011 
	C173.888153,71.425842 180.331268,73.105392 185.604919,76.785118 
	C195.950623,84.003937 198.552673,98.365997 191.150253,108.511017 
	C188.101852,112.688843 183.367447,114.607788 178.678558,116.361176 
	C169.629181,119.745125 160.197617,121.641602 150.719589,123.306702 
	C149.370010,123.543800 148.112701,123.736557 146.918533,125.009178 
	C162.871628,142.929367 165.656982,160.720810 145.073395,177.793335 
	C149.111649,181.825882 152.745239,185.754456 155.044907,190.494537 
	C160.812546,202.382812 158.268143,211.141235 146.908844,219.904388 
	C144.414871,221.828384 142.028931,223.961243 139.317505,225.517456 
	C135.755981,227.561539 136.363831,229.565842 138.458939,232.263931 
	C142.901062,237.984451 144.829239,245.385895 143.315353,251.427505 
	C138.389206,248.212677 138.311783,241.937805 133.682114,238.340164 
	C131.143600,244.136047 132.923050,250.262848 132.119629,256.545776 
	C130.611115,257.000000 129.222214,257.000000 127.416664,257.000000 
	C127.000000,250.869934 127.000000,244.739883 127.000000,237.791840 
	C121.645920,241.433014 120.066811,246.633423 116.615318,251.802078 
	C114.071259,242.081116 118.096260,235.513931 123.319618,229.049316 
	C119.960381,224.777756 115.536697,221.691803 111.274345,218.800537 
	C97.995338,209.793015 99.295654,194.277069 108.956680,183.859558 
	C110.639389,182.045074 112.704414,180.585159 115.174171,178.461624 
	C106.172485,171.409103 99.701973,163.519806 99.725105,152.359421 
	C99.747284,141.656555 104.784554,132.991684 112.592430,125.152466 
	C107.917183,122.449898 102.893234,122.481590 98.225540,121.402107 
	C90.459671,119.606110 82.565277,118.065384 75.549034,114.182861 
	C59.610168,105.362885 60.881382,88.229988 72.113640,77.995636 
	C77.750778,72.859322 85.628540,71.109833 91.633148,66.332092 
	C92.524796,65.622635 94.317078,65.394554 95.447960,65.741486 
	C102.977165,68.051338 110.439804,70.578156 118.523499,73.231186 
	C115.281082,78.923012 110.720879,81.669884 105.433510,83.306923 
	C99.185760,85.241318 92.726410,85.521866 86.207603,85.418709 
	C81.007286,85.336411 77.397385,89.162315 77.320198,94.054520 
	C77.282021,96.474678 78.207054,98.093369 80.105782,99.520477 
	C84.500526,102.823639 89.718094,103.975662 94.834244,105.323555 
	C102.525955,107.349998 110.290764,109.097641 118.000214,111.059250 
	C119.641296,111.476807 121.185585,111.950256 122.856033,111.145370 
	C122.476051,90.764908 123.075233,70.381126 121.132103,49.826591 
	C117.682884,51.097412 114.103630,52.567513 110.428726,53.737030 
	C103.796486,55.847698 97.073013,56.268036 90.355392,54.074924 
	C89.223633,53.705437 88.093811,53.141445 86.998375,53.746227 
	C81.427879,56.821671 75.295242,56.982124 69.192207,57.806767 
	C66.051521,58.231133 63.118309,57.952068 60.414494,57.237408 
	C51.467682,54.872646 43.177307,58.268444 34.658039,59.498985 
	C23.497145,61.111088 12.509357,61.070301 1.375450,57.119160 
	C1.000000,56.250000 1.000000,55.500000 1.348231,54.323387 
	C13.959929,53.117203 25.264229,48.921211 36.470432,44.276768 
	C50.019024,38.661518 62.405083,30.933552 74.710083,23.126881 
	C82.386627,18.256641 89.335175,17.957047 96.598984,23.631203 
	C99.853905,26.173796 103.429680,28.342529 107.011742,30.418896 
	C110.477646,32.427937 114.239166,33.725277 118.353065,33.635593 
	C120.277199,33.593647 121.805779,32.934708 121.463081,30.753672 
	C121.107864,28.492935 120.742912,26.063597 119.652504,24.116684 
	C113.506828,13.143558 114.346863,8.249382 124.000000,1.000000 
	C127.361290,1.000000 130.722580,1.000000 134.787048,1.226423 
	C144.337708,7.277512 146.149246,15.571495 140.076019,23.898676 
	C138.052917,26.672617 137.438416,29.833979 138.891876,32.261898 
	C140.600891,35.116699 143.944275,33.604946 146.596100,32.744854 
	C153.815781,30.403215 159.834457,25.853479 166.034424,21.738127 
	C170.711594,18.633564 175.119431,18.201456 179.933350,20.950212 
	C186.267181,24.566845 192.632538,28.128643 198.950317,31.772985 
	C217.125443,42.257099 235.681091,51.732685 257.000000,54.000000 
	C257.000000,55.066669 257.000000,56.133339 257.000000,57.600006 
M117.227707,191.761520 
	C107.039131,201.368561 114.194801,211.855255 125.307030,217.526016 
	C126.624008,204.759827 125.938660,190.358124 123.825333,187.224823 
	C121.376144,187.927002 119.456985,189.450500 117.227707,191.761520 
M133.343994,212.155609 
	C133.665955,214.003830 132.602524,216.091415 134.457520,218.029465 
	C140.529480,213.993927 146.340546,209.619965 147.186859,201.900864 
	C147.766891,196.610626 140.822327,189.026596 134.277328,186.990570 
	C135.112442,195.283600 132.783691,203.166595 133.343994,212.155609 
M123.653450,139.923050 
	C123.406822,138.369400 124.221001,136.623688 122.699730,135.042480 
	C116.162498,139.498383 112.509468,145.290390 113.395035,153.406677 
	C114.034912,159.271210 119.142128,165.518753 124.426483,167.026123 
	C125.369019,158.246597 124.045197,149.529938 123.653450,139.923050 
M139.658905,136.987488 
	C138.351746,136.496887 137.525131,134.796371 135.458160,135.478928 
	C135.097641,146.010300 135.881653,156.589935 134.177673,167.861465 
	C145.907333,161.771912 150.306870,148.366486 139.658905,136.987488 
M93.102631,71.607162 
	C91.028191,72.722923 91.181320,74.067421 92.803383,75.420685 
	C94.210739,76.594833 95.463593,75.769577 96.040558,74.553108 
	C97.083694,72.353783 95.634430,71.645714 93.102631,71.607162 
z"/>
</svg>